<?xml version="1.0" encoding="UTF-8" standalone="no"?>
<svg
   width="2427.1299"
   height="876.30786"
   viewBox="0 0 187.05599 67.535995"
   version="1.1"
   id="svg28"
   xmlns="http://www.w3.org/2000/svg"
   xmlns:svg="http://www.w3.org/2000/svg">
  <defs
     id="defs28" />
  <path
     fill="#ffffff"
     d="M -2.8080001,-62.568001 H 189.864 V 130.104 H -2.8080001 Z"
     id="path1"
     style="display:none" />
  <g
     fill="#608cc8"
     id="g27"
     transform="translate(-2.8080001,-62.568001)">
    <path
       d="m 7.272,113.04 c 3.888,6.696 9.792,11.88 16.992,14.688 -4.608,-2.808 -8.928,-6.12 -12.816,-10.152 -1.512,-1.368 -2.808,-2.88 -4.176,-4.536 z m -3.6,-9.288 c 0.36,1.44 0.792,2.808 1.224,4.104 2.232,3.168 4.608,6.048 7.416,8.856 5.328,5.184 11.16,9.432 17.424,12.672 a 48.3,48.3 0 0 0 4.32,0.648 A 69.312,69.312 0 0 1 13.32,115.776 C 9.504,112.104 6.408,108 3.672,103.752 Z"
       id="path2" />
    <path
       d="m 2.808,97.056 c 0,1.08 0.144,2.16 0.216,3.168 a 67.7,67.7 0 0 0 11.16,14.688 c 6.912,6.912 14.904,11.952 23.472,15.192 1.08,0 2.16,-0.072 3.24,-0.216 -9.432,-3.096 -18.288,-8.424 -25.848,-15.984 -5.112,-5.04 -9.072,-10.8 -12.24,-16.848 z"
       id="path3" />
    <path
       d="M 3.168,91.728 A 15.741,15.741 0 0 0 2.952,94.32 c 3.024,6.768 7.416,13.104 13.032,18.72 8.064,7.992 17.568,13.392 27.72,16.344 0.864,-0.144 1.728,-0.36 2.592,-0.648 C 35.568,126.144 25.344,120.528 16.848,112.104 10.8,106.056 6.264,99 3.168,91.728 Z"
       id="path4" />
    <path
       d="M 4.104,86.976 C 3.888,87.696 3.672,88.488 3.6,89.208 a 62.337,62.337 0 0 0 14.256,22.032 c 8.784,8.712 19.44,14.328 30.816,16.704 A 22.422,22.422 0 0 0 50.832,127.08 61.45,61.45 0 0 1 18.72,110.376 C 11.88,103.464 7.056,95.616 4.104,86.976 Z"
       id="path5" />
    <path
       d="m 5.616,82.944 c -0.288,0.648 -0.504,1.296 -0.864,1.944 2.808,9.072 7.704,17.352 14.832,24.48 9.432,9.432 21.096,14.904 33.192,16.776 0.648,-0.36 1.152,-0.792 1.8,-1.08 C 42.192,123.552 30.096,118.008 20.52,108.504 13.176,101.088 8.208,92.376 5.616,82.944 Z"
       id="path6" />
    <path
       d="m 17.28,100.872 a 4.414,4.414 0 0 1 -3.456,-4.32 V 95.904 C 10.8,90.72 8.64,85.104 7.344,79.416 7.056,79.92 6.696,80.496 6.48,81.144 c 2.376,9.72 7.344,18.864 14.904,26.424 9.792,9.72 22.176,15.192 34.848,16.416 0.504,-0.432 1.08,-0.792 1.584,-1.224 -12.96,-0.864 -25.56,-6.264 -35.424,-16.056 -1.872,-1.872 -3.6,-3.816 -5.112,-5.832 z"
       id="path7" />
    <path
       d="m 15.336,93.312 c -2.88,-5.4 -4.968,-11.088 -5.904,-17.064 -0.36,0.576 -0.648,1.008 -1.08,1.512 1.08,5.832 3.096,11.448 6.12,16.632 0.216,-0.432 0.576,-0.72 0.864,-1.08 z m 4.896,7.128 c -0.36,0.216 -0.864,0.432 -1.296,0.432 1.296,1.728 2.808,3.312 4.32,4.968 10.08,9.936 22.896,15.192 36,15.768 0.432,-0.432 0.864,-0.864 1.368,-1.296 -13.248,-0.216 -26.352,-5.4 -36.36,-15.48 -1.44,-1.368 -2.736,-2.88 -4.032,-4.392 z"
       id="path8" />
    <path
       d="m 55.44,118.656 c 2.088,0.216 4.248,0.36 6.408,0.36 0.288,-0.36 0.648,-0.792 0.936,-1.08 -1.944,0.504 -4.104,0.72 -6.264,0.72 z M 26.064,103.032 c -1.368,-1.44 -2.808,-2.952 -4.032,-4.464 -0.216,0.432 -0.432,0.792 -0.72,1.08 1.152,1.512 2.376,2.952 3.816,4.32 6.984,6.912 15.408,11.448 24.408,13.608 -2.736,-0.864 -5.112,-2.016 -7.272,-3.672 -5.904,-2.448 -11.448,-6.12 -16.2,-10.872 z M 17.856,92.376 c -3.384,-5.832 -5.4,-12.312 -6.192,-18.792 -0.432,0.432 -0.72,0.864 -1.152,1.296 0.864,6.264 2.88,12.168 5.904,17.784 0.432,-0.216 0.864,-0.288 1.44,-0.288 z"
       id="path9" />
    <path
       d="m 38.376,110.16 c -0.432,-0.576 -0.864,-1.08 -1.296,-1.728 -3.24,-1.944 -6.336,-4.464 -9.144,-7.272 C 19.44,92.88 14.832,82.224 14.04,71.208 c -0.432,0.432 -0.864,0.72 -1.296,1.152 0.792,7.056 2.952,13.824 6.624,20.088 1.8,0.576 3.24,2.16 3.24,4.104 V 97.2 c 1.296,1.728 2.736,3.312 4.32,4.968 3.672,3.672 7.776,6.696 12.24,8.928 v -0.072 c -0.216,-0.216 -0.432,-0.576 -0.792,-0.864 z"
       id="path10" />
    <path
       d="M 29.664,99.36 C 21.312,91.08 16.848,80.28 16.56,69.264 c -0.432,0.288 -0.864,0.648 -1.296,0.936 0.504,11.016 5.04,21.816 13.536,30.096 a 47.857,47.857 0 0 0 6.984,5.76 c -0.288,-0.648 -0.648,-1.44 -0.936,-2.304 -1.728,-1.296 -3.456,-2.808 -5.184,-4.392 z m 17.928,8.28 c 2.448,1.944 5.688,3.24 9.144,3.24 1.872,0 3.6,-0.288 5.112,-0.864 -4.896,0 -9.648,-0.72 -14.256,-2.376 z"
       id="path11" />
    <path
       d="M 31.464,97.488 C 23.112,89.352 19.008,78.408 19.008,67.536 c -0.432,0.216 -0.864,0.504 -1.296,0.72 0.216,11.016 4.464,21.96 12.888,30.24 1.224,1.152 2.376,2.232 3.672,3.312 -0.216,-0.72 -0.288,-1.368 -0.432,-2.016 C 33.12,99 32.256,98.352 31.464,97.488 Z"
       id="path12" />
    <path
       d="M 33.624,96.12 C 33.552,96.048 33.408,95.904 33.336,95.904 25.128,87.696 21.168,76.824 21.6,66.024 c -0.432,0.216 -0.864,0.504 -1.296,0.72 -0.216,10.8 3.816,21.816 12.168,29.88 0.288,0.432 0.72,0.864 1.152,1.296 z m 10.584,7.344 c 0.36,0.72 0.648,1.368 1.08,1.944 6.192,2.664 12.888,3.672 19.368,3.24 0.72,-0.432 1.368,-1.008 2.016,-1.512 -7.56,0.936 -15.408,-0.216 -22.464,-3.672 z"
       id="path13" />
    <path
       d="m 43.344,100.08 c 0.144,0.648 0.216,1.224 0.36,1.728 a 39.427,39.427 0 0 0 24.408,3.816 c 0.072,-0.144 0.072,-0.144 0.216,-0.216 0.288,-0.432 0.648,-0.864 0.864,-1.44 -8.64,1.872 -17.928,0.576 -25.848,-3.888 z m -9.36,-7.272 C 26.856,84.888 23.544,74.736 24.336,64.8 c -0.432,0.216 -1.008,0.432 -1.44,0.648 a 39.238,39.238 0 0 0 10.872,29.088 c 0,-0.216 0,-0.432 0.072,-0.648 0,-0.36 0.144,-0.792 0.144,-1.08 z"
       id="path14" />
    <path
       d="m 27.072,63.936 c -0.576,0.144 -1.008,0.216 -1.44,0.432 -0.864,9.504 2.088,19.224 8.64,26.928 0.216,-0.432 0.36,-1.008 0.576,-1.512 C 28.656,82.44 26.064,73.008 27.072,63.936 Z m 19.08,34.776 c -0.936,-0.576 -2.016,-1.08 -3.024,-1.728 v 1.584 c 8.208,4.752 17.712,6.192 26.712,4.032 0.216,-0.432 0.288,-0.864 0.432,-1.296 v -0.144 c -7.056,1.872 -14.616,1.44 -21.384,-1.296 h -2.736 z m -3.024,-3.096 c 1.008,0.648 2.088,1.152 3.024,1.656 v -1.368 c -0.936,-0.504 -1.944,-1.152 -2.88,-1.8 -0.144,0.504 -0.144,1.08 -0.144,1.512 z"
       id="path15" />
    <path
       d="m 52.848,99.864 c 5.76,1.512 11.88,1.512 17.64,-0.072 0,-0.432 0,-0.864 0.072,-1.44 -0.144,0.144 -0.432,0.144 -0.648,0.216 0,0.432 -0.072,0.864 -0.072,1.296 z M 29.664,63.288 c -0.432,0 -0.864,0.144 -1.296,0.216 -1.08,8.784 1.152,17.712 6.912,24.984 0.216,-0.432 0.432,-1.008 0.648,-1.44 C 30.6,80.136 28.584,71.496 29.664,63.288 Z"
       id="path16" />
    <path
       d="M 37.44,84.672 C 32.76,78.192 31.176,70.344 32.328,62.784 31.896,62.856 31.464,62.856 30.96,63 c -1.224,7.848 0.72,16.2 5.616,22.896 0.288,-0.36 0.504,-0.792 0.864,-1.224 z m 33.12,11.664 v -0.504 c -0.288,0.072 -0.504,0.216 -0.864,0.288 0,0.288 0.144,0.72 0.144,1.152 0.216,-0.072 0.576,-0.072 0.72,-0.216 z M 43.488,92.664 c 0.864,0.648 1.8,1.296 2.664,1.872 v -1.44 h 0.36 c -1.008,-0.504 -1.872,-1.08 -2.736,-1.728 -0.072,0.432 -0.216,0.864 -0.288,1.296 z m 27.072,1.872 c 0,-0.432 -0.072,-0.864 -0.072,-1.296 -0.432,0.072 -0.792,0.216 -1.224,0.288 0.144,0.432 0.216,0.864 0.216,1.296 0.36,-0.072 0.792,-0.216 1.08,-0.288 z"
       id="path17" />
    <path
       d="m 35.064,62.568 c -0.432,0 -1.008,0.072 -1.44,0.072 -1.296,7.272 0.216,14.832 4.536,21.096 0.36,-0.432 0.576,-0.792 0.864,-1.08 -3.96,-5.976 -5.256,-13.32 -3.96,-20.088 z M 52.56,93.096 C 49.824,92.16 47.232,90.72 44.856,88.92 c -0.216,0.288 -0.432,0.72 -0.648,1.152 1.512,1.224 3.168,2.16 4.896,3.024 z"
       id="path18" />
    <path
       d="M 37.656,62.568 H 36.36 c -1.44,6.48 -0.144,13.392 3.672,19.224 0.288,-0.36 0.648,-0.648 0.936,-0.864 -3.528,-5.544 -4.608,-12.24 -3.312,-18.36 z m 32.616,29.376 c 0,-0.432 -0.144,-1.008 -0.144,-1.44 -0.504,0.216 -0.936,0.36 -1.512,0.576 0.216,0.432 0.36,0.864 0.432,1.296 a 5.02,5.02 0 0 1 1.224,-0.432 z m -10.368,1.152 v -1.08 C 55.152,91.728 50.472,90 46.512,86.976 c -0.144,0.072 -0.216,0.216 -0.36,0.288 -0.216,0.216 -0.432,0.432 -0.648,0.576 3.672,2.88 7.776,4.608 12.096,5.256 z"
       id="path19" />
    <path
       d="m 40.248,62.64 c -0.432,0 -0.864,0 -1.296,-0.072 -1.296,5.904 -0.36,12.312 3.096,17.568 0.36,-0.216 0.648,-0.432 1.08,-0.648 C 39.888,74.448 38.952,68.4 40.248,62.64 Z M 69.84,89.352 c 0,-0.432 -0.144,-0.864 -0.216,-1.296 -0.648,0.216 -1.224,0.432 -1.872,0.504 0.216,0.432 0.36,0.864 0.576,1.296 0.504,-0.216 0.936,-0.288 1.512,-0.504 z m -10.8,0 c -3.6,-0.36 -6.912,-1.656 -9.936,-3.816 -0.576,0.216 -1.008,0.432 -1.44,0.648 3.6,2.736 7.704,4.248 11.88,4.536 -0.072,-0.432 -0.288,-0.936 -0.504,-1.368 z M 69.192,86.76 c -0.144,-0.36 -0.216,-0.792 -0.36,-1.224 -0.72,0.216 -1.512,0.576 -2.232,0.792 0.216,0.288 0.432,0.72 0.648,1.152 0.648,-0.216 1.296,-0.432 1.944,-0.72 z M 55.8,86.112 c -0.576,-0.216 -1.224,-0.432 -1.728,-0.648 -1.08,-0.36 -2.304,-0.36 -3.384,-0.216 2.304,1.368 4.896,2.232 7.344,2.664 -0.648,-0.72 -1.368,-1.368 -2.232,-1.8 z"
       id="path20" />
    <path
       d="M 42.84,63.072 C 42.408,63 41.976,62.856 41.544,62.856 c -1.296,5.4 -0.432,11.232 2.808,16.128 0.288,-0.216 0.72,-0.432 1.152,-0.576 A 19.312,19.312 0 0 1 42.84,63.072 Z M 68.4,84.384 c -0.216,-0.432 -0.288,-0.864 -0.504,-1.296 -0.864,0.432 -1.872,0.72 -2.808,0.864 0.288,0.432 0.504,0.864 0.864,1.152 a 31.433,31.433 0 0 0 2.448,-0.72 z"
       id="path21" />
    <path
       d="M 45.288,63.648 C 44.856,63.504 44.424,63.432 43.992,63.288 42.84,68.256 43.704,73.656 46.8,78.12 47.232,77.904 47.808,77.904 48.24,77.76 45.072,73.656 44.136,68.4 45.288,63.648 Z"
       id="path22" />
    <path
       d="m 51.48,77.472 c -3.6,-3.6 -4.752,-8.568 -3.672,-13.104 -0.432,-0.072 -0.864,-0.288 -1.296,-0.432 -1.08,4.68 0,9.72 3.24,13.608 0.504,0 1.08,-0.072 1.728,-0.072 z m 12.744,5.4 c 1.08,-0.144 2.16,-0.432 3.096,-0.864 -0.072,-0.432 -0.288,-0.864 -0.504,-1.224 -1.224,0.432 -2.52,0.792 -3.816,0.864 0.432,0.432 0.864,0.792 1.224,1.224 z"
       id="path23" />
    <path
       d="M 53.424,75.816 C 50.472,73.008 49.536,69.048 50.256,65.376 49.824,65.16 49.392,64.944 48.96,64.8 c -0.936,4.104 0.216,8.784 3.456,12.024 0.36,0.216 0.576,0.504 0.864,0.72 1.296,0.144 2.592,0.432 3.888,0.792 a 11.835,11.835 0 0 1 -3.744,-2.52 z m 12.744,3.888 c -0.216,-0.432 -0.432,-0.864 -0.648,-1.152 -2.376,0.864 -4.896,0.864 -7.272,0.216 1.224,0.432 2.304,1.08 3.384,1.8 1.512,0 3.096,-0.288 4.536,-0.864 z"
       id="path24" />
    <path
       d="M 64.872,77.472 C 64.512,77.04 64.296,76.68 64.008,76.248 60.984,77.112 57.6,76.392 55.224,74.016 a 9.438,9.438 0 0 1 -2.592,-7.56 C 52.2,66.24 51.768,66.024 51.336,65.88 c -0.504,3.168 0.432,6.624 2.952,9.072 2.808,2.808 6.912,3.672 10.584,2.52 z"
       id="path25" />
    <path
       d="m 63.144,75.168 c -0.36,-0.288 -0.648,-0.72 -1.008,-1.152 -1.8,0.216 -3.672,-0.432 -5.04,-1.872 a 6.133,6.133 0 0 1 -1.944,-4.176 c -0.432,-0.216 -0.864,-0.576 -1.296,-0.792 -0.144,2.088 0.648,4.32 2.232,5.976 1.944,1.944 4.536,2.592 7.056,2.016 z"
       id="path26" />
    <path
       d="M 61.056,72.792 A 40.136,40.136 0 0 0 56.52,68.904 c 0.216,0.864 0.648,1.728 1.44,2.376 0.864,0.864 1.944,1.44 3.096,1.512 z"
       id="path27" />
  </g>
  <g
     fill="#294b93"
     id="g28"
     transform="translate(-2.8080001,-62.568001)">
    <path
       d="m 127.152,103.464 c 0.576,3.024 1.728,5.256 4.536,6.12 3.384,1.008 7.56,0.792 9.648,-1.944 0.72,-0.936 0.864,-2.376 0.504,-3.528 -0.504,-1.872 -2.16,-2.304 -5.4,-2.952 -2.808,-0.648 -9.72,-1.368 -13.392,-4.176 -2.952,-2.232 -4.464,-6.552 -2.952,-11.304 1.8,-5.112 6.984,-7.344 10.872,-7.92 7.2,-1.08 13.032,1.656 15.552,4.248 1.944,2.016 3.24,5.256 3.096,8.424 h -7.992 c -0.072,-1.008 -0.216,-1.944 -0.648,-2.808 -0.936,-2.16 -3.24,-3.456 -5.688,-3.456 -2.808,-0.216 -5.76,0.504 -6.912,2.88 -0.432,0.864 -0.432,2.376 0.288,3.24 1.728,1.944 5.112,2.088 7.992,2.592 4.968,0.864 10.368,1.728 12.744,5.832 2.736,4.752 1.224,10.152 -0.504,12.312 -1.224,1.512 -2.592,2.88 -4.464,3.96 -3.096,1.728 -8.424,2.376 -13.608,1.512 -4.752,-0.72 -7.992,-3.096 -9.792,-6.048 -1.44,-2.232 -2.304,-4.176 -2.304,-6.984 z M 90.936,93.096 h 13.536 c 0.216,-3.096 -2.16,-6.552 -5.328,-7.56 -2.808,-0.864 -5.832,-0.288 -8.352,1.728 -2.232,2.088 -3.024,6.408 -3.024,9.072 0.144,5.04 1.08,8.64 4.032,10.8 1.944,1.368 6.264,3.24 10.152,0.432 a 7.466,7.466 0 0 0 2.808,-4.32 h 9.648 c -0.216,3.024 -3.168,7.848 -6.048,10.008 -5.184,3.816 -12.024,4.536 -17.352,2.52 -11.52,-4.32 -13.392,-15.336 -12.528,-21.888 0.432,-2.736 1.44,-5.544 2.808,-7.992 2.736,-4.32 6.624,-7.344 12.024,-8.208 5.832,-0.864 11.664,0.936 15.48,5.184 2.16,2.448 4.176,6.552 4.968,9.936 0.432,2.232 0.864,4.608 0.648,7.056 H 90.936 Z m 81.072,16.488 v 6.912 c 3.024,-0.648 5.4,-2.016 7.704,-3.888 0.072,0.576 0.648,2.592 1.08,3.168 h 9.072 c -1.44,-2.808 -1.224,-6.912 -1.224,-9.216 V 94.968 c -0.072,-3.024 -0.072,-6.048 -0.72,-8.856 -0.648,-2.808 -3.168,-7.488 -11.16,-8.424 -1.512,-0.144 -3.096,-0.144 -4.752,-0.144 v 6.912 c 2.16,-0.072 4.32,0.432 5.832,1.872 1.008,0.936 1.296,2.232 1.008,3.672 -0.576,2.232 -3.024,3.024 -6.84,3.528 v 5.904 c 1.008,-0.072 2.088,-0.288 3.24,-0.648 2.376,-0.504 2.952,-0.936 4.104,-1.8 0,0.864 0.144,6.984 -0.432,8.208 -0.936,2.592 -3.672,4.104 -6.912,4.392 z m 0,-25.128 v -6.912 c -2.664,0.144 -5.544,0.576 -7.776,1.44 -4.752,1.944 -7.128,6.552 -7.128,11.448 h 8.64 c -0.216,-2.52 1.584,-4.752 3.384,-5.4 0.72,-0.36 1.8,-0.576 2.88,-0.576 z m 0,14.976 v -5.904 c -1.296,0.216 -2.808,0.36 -4.464,0.576 -4.536,0.504 -11.016,2.736 -12.528,9.36 -0.504,2.592 -0.072,7.344 3.888,10.44 2.736,2.088 6.48,3.024 9.432,2.952 1.296,0 2.592,-0.144 3.672,-0.36 v -6.912 a 6.968,6.968 0 0 1 -2.16,0.144 c -2.16,0 -4.032,-1.08 -4.752,-2.736 -0.864,-1.584 -0.36,-3.24 0.216,-4.176 1.296,-2.304 3.528,-2.736 6.696,-3.384 z"
       id="path28" />
  </g>
</svg>
