<?xml version="1.0" encoding="utf-8"?>
<!-- Generator: Adobe Illustrator 26.2.1, SVG Export Plug-In . SVG Version: 6.00 Build 0)  -->
<svg version="1.1" id="Calque_1" xmlns="http://www.w3.org/2000/svg" xmlns:xlink="http://www.w3.org/1999/xlink" x="0px" y="0px"
	 viewBox="0 0 500 742.3" style="enable-background:new 0 0 500 742.3;" xml:space="preserve">
<style type="text/css">
	.st0{fill:#FFFFFF;}
	.st1{fill:#273375;}
	.st2{fill:#E20613;}
</style>
<rect class="st0" width="500" height="742.3"/>
<path class="st1" d="M26.4,322.2h52.9c42.7,0,71.5,30.9,71.5,67.3c0,36.3-28.8,67.3-71.5,67.3H26.4V322.2z M53.7,347v84.9h25.9
	c25,0,43.1-18.6,43.1-42.5c0-24-18.1-42.5-43.1-42.5H53.7z M275.6,423.3c-7.7,7.3-18.6,11.7-31.3,11.7c-26.3,0-45.4-19.8-45.4-45.6
	c0-25.8,18.1-45.6,43.4-45.6c15.4,0,27.5,7.5,35.2,18.5l21.5-16.7c-12.3-16.3-32.3-27.3-56.7-27.3c-42.5,0-71.5,32.7-71.5,71.1
	c0,38.4,29.8,71.1,73.4,71.1c25.2,0,46.1-10.8,58.6-27.5v-56.5h-61.5v23.3h34.2L275.6,423.3 M368.4,322.2h35.7l50.9,134.5h-29
	l-12.9-35h-53.8l-12.9,35h-29L368.4,322.2z M404.8,398.5l-18.5-50.5l-18.4,50.5H404.8z"/>
<path class="st1" d="M26.4,543.1h15.1c12.2,0,20.4,8.8,20.4,19.2c0,10.4-8.2,19.2-20.4,19.2H26.4V543.1z M34.2,550.2v24.3h7.4
	c6.7,0.1,12.2-5.3,12.3-12c0.1-6.7-5.3-12.2-12-12.3c-0.1,0-0.2,0-0.3,0H34.2z M70,581.5h7.8v-38.4H70L70,581.5z M89.1,543.1h11.8
	c8.5,0,13.7,4.3,13.7,11.5c0.2,4.3-2.3,8.2-6.2,9.9l12,17h-9.2L100.9,566h-4v15.5h-7.8L89.1,543.1z M96.9,549.6v9.9h4.4
	c3.3,0,5.2-1.9,5.2-5.1c0-2.9-1.9-4.9-5.2-4.9L96.9,549.6z M125.8,581.5h22.4v-6.5h-14.6v-9.9H146v-6.5h-12.4v-9.1h14.6v-6.5h-22.4
	L125.8,581.5z M184.2,570.1c-2.3,3.3-6,5.3-10,5.3c-7.2,0-12.4-5.7-12.4-13c0-7.4,5.2-13,12.4-13c4,0,7.8,1.9,10,5.3l6.1-4.8
	c-6.9-8.9-19.7-10.6-28.6-3.8c-8.9,6.9-10.6,19.7-3.8,28.6c3.9,5,9.9,8,16.2,8c6.4,0.2,12.4-2.8,16.2-7.9L184.2,570.1 M193.7,550.2
	h11.9v31.3h7.8v-31.3h11.9v-7.1h-31.5V550.2z M232.6,581.5h7.8v-38.4h-7.8L232.6,581.5z M289.2,562.3c0,11.3-9.1,20.4-20.3,20.5
	c-11.3,0-20.4-9.1-20.5-20.3c0-11.3,9.1-20.4,20.3-20.5c0,0,0.1,0,0.1,0c11-0.2,20.1,8.5,20.4,19.6
	C289.2,561.8,289.2,562.1,289.2,562.3 M281.2,562.3c0-7.4-5.2-13-12.4-13c-7.2,0-12.4,5.7-12.4,13c0,7.4,5.2,13,12.4,13
	C276,575.3,281.2,569.7,281.2,562.3 M297.3,581.5h7.8v-27.8l17.2,27.8h10v-38.4h-7.8v27.8l-17.2-27.8h-10L297.3,581.5z M56.3,637.8
	c-2.4,2.2-5.6,3.4-9,3.3c-7,0.2-12.8-5.4-13-12.4c0-0.2,0-0.4,0-0.7c0-7.4,5.2-13,12.4-13c4,0,7.8,1.9,10,5.3l6.1-4.8
	c-3.8-5-9.9-7.9-16.2-7.8c-11-0.2-20.2,8.5-20.4,19.5c0,0.3,0,0.5,0,0.8c0,11,8.5,20.3,21,20.3c7.2,0,13.2-3.1,16.7-7.9v-16.1H46.5
	v6.6h9.8V637.8 M73.3,608.9h22.4v6.5H81.1v9.1h12.4v6.5H81.1v9.9h14.6v6.5H73.3V608.9z M80.9,605.6l6.2-7.4h8l-7.1,7.4H80.9z
	 M105.4,647.3h7.8v-27.8l17.2,27.8h10v-38.4h-7.8v27.8l-17.2-27.8h-10L105.4,647.3z M151.7,608.9h22.4v6.5h-14.6v9.1h12.4v6.5h-12.4
	v9.9h14.6v6.5h-22.4V608.9z M159.2,605.6l6.2-7.4h8l-7.1,7.4H159.2z M183.7,608.9h11.8c8.5,0,13.7,4.3,13.7,11.5
	c0.2,4.3-2.3,8.2-6.2,9.9l12,17h-9.2l-10.3-15.5h-4v15.5h-7.8L183.7,608.9z M191.5,615.4v9.9h4.4c3.3,0,5.2-1.9,5.2-5.1
	c0-2.9-1.9-4.9-5.2-4.9L191.5,615.4z M231.8,608.9H242l14.5,38.4h-8.3l-3.7-10h-15.4l-3.7,10h-8.3L231.8,608.9z M242.2,630.7
	l-5.3-14.4l-5.3,14.4H242.2z M263,647.3h22.4v-7.1h-14.6v-31.3H263L263,647.3z M292.9,647.3h22.4v-6.5h-14.6V631h12.4v-6.5h-12.4
	v-9.1h14.6v-6.5h-22.4L292.9,647.3z M26.2,676.5l15.1-0.1c12.2-0.1,20.5,8.7,20.6,19.1c0.1,10.4-8.1,19.3-20.3,19.4l-15.1,0.1
	L26.2,676.5z M34.1,683.5l0.2,24.3l7.4-0.1c6.7,0,12.2-5.4,12.2-12.1c0-6.7-5.4-12.2-12.1-12.2c-0.1,0-0.2,0-0.3,0L34.1,683.5z
	 M70.1,714.6l22.4-0.2l0-6.5L77.9,708l-0.1-9.9l12.4-0.1l-0.1-6.5l-12.4,0.1l-0.1-9.1l14.6-0.1l-0.1-6.5l-22.4,0.2L70.1,714.6z
	 M117,714.2l22.4-0.2l-0.1-7.1l-14.6,0.1l-0.2-31.3l-7.8,0.1L117,714.2z M144.6,691.4l6.2-15.9l-7.9,0.1l-4.8,15.8L144.6,691.4z
	 M162.8,675.4l10.2-0.1l14.8,38.3l-8.3,0.1l-3.8-10l-15.4,0.1l-3.6,10l-8.3,0.1L162.8,675.4z M173.4,697.2l-5.4-14.4l-5.2,14.5
	L173.4,697.2z M194.1,675.2l11.8-0.1c8.5-0.1,13.7,4.2,13.8,11.4c0.2,4.3-2.2,8.3-6.1,10l12.2,16.9l-9.2,0.1L206.1,698l-4,0
	l0.1,15.5l-7.8,0.1L194.1,675.2z M201.9,681.6l0.1,9.9l4.4,0c3.3,0,5.2-2,5.2-5.1c0-2.9-2-4.9-5.3-4.8L201.9,681.6z M231.1,713.4
	l7.8-0.1l-0.2-27.6l8.7,14.3l5.5,0l8.5-14.4l0.2,27.6l7.8-0.1l-0.3-38.4l-9.7,0.1l-9.3,16.2l-9.5-16.1l-9.7,0.1L231.1,713.4z
	 M280.6,713l22.4-0.2l0-6.5l-14.6,0.1l-0.1-9.9l12.4-0.1l-0.1-6.5l-12.4,0.1l-0.1-9.1l14.6-0.1l-0.1-6.5l-22.4,0.2L280.6,713z
	 M312.6,712.7l7.8-0.1l-0.2-27.6l8.7,14.3l5.5,0l8.5-14.4l0.2,27.6l7.8-0.1l-0.3-38.4l-9.7,0.1l-9.3,16.2l-9.5-16.1l-9.7,0.1
	L312.6,712.7z M362.1,712.4l22.4-0.2l0-6.5l-14.6,0.1l-0.1-9.9l12.4-0.1l-0.1-6.5l-12.4,0.1l-0.1-9.1l14.6-0.1l-0.1-6.5l-22.4,0.2
	L362.1,712.4z M394.1,712.1l7.8-0.1l-0.2-27.8l17.4,27.6l10-0.1l-0.3-38.4l-7.8,0.1l0.2,27.8l-17.4-27.6l-10,0.1L394.1,712.1z
	 M436.2,680.5l11.9-0.1l0.2,31.4l7.8-0.1l-0.2-31.4l11.9-0.1l-0.1-7.1l-31.5,0.2L436.2,680.5z"/>
<rect x="26.4" y="493.7" class="st1" width="143.7" height="12.3"/>
<rect x="170.1" y="493.7" class="st0" width="143.7" height="12.3"/>
<rect x="313.9" y="493.7" class="st2" width="143.7" height="12.3"/>
<polygon class="st2" points="259,137.9 429.9,28.1 178.8,311.3 "/>
<path class="st1" d="M429.9,28.1L228,115l-173.9-4.1L429.9,28.1z M217.6,144L54.1,110.9l123.6,53.8l1.1,146.7L217.6,144z"/>
</svg>
