<?xml version="1.0" encoding="UTF-8" standalone="no"?>
<svg
   width="2426.4873"
   height="469.06451"
   viewBox="0 0 187.08799 36.166"
   version="1.1"
   id="svg4"
   xmlns="http://www.w3.org/2000/svg"
   xmlns:svg="http://www.w3.org/2000/svg">
  <defs
     id="defs4" />
  <g
     fill-rule="evenodd"
     clip-rule="evenodd"
     id="g4"
     transform="translate(-2.8340001,-78.294998)">
    <path
       fill="#ffffff"
       d="M 0,0 H 192.756 V 192.756 H 0 Z"
       id="path1"
       style="display:none" />
    <path
       d="m 56.292,78.295 c -5.973,0 -9.383,3.274 -9.383,6.465 0,4.136 4.193,6.686 9.339,6.686 5.5,0 9.649,-2.698 9.649,-6.598 -0.001,-3.308 -3.633,-6.553 -9.605,-6.553 z m -0.443,12.08 c -0.829,0 -7.128,-0.896 -7.128,-5.421 0,-3.107 3.509,-5.598 7.527,-5.598 4.963,0 7.837,2.742 7.837,5.73 -10e-4,2.753 -3.037,5.289 -8.236,5.289 z M 86.371,78.662 h 2.067 V 91.558 L 75.102,81.647 v 9.644 H 73.379 V 78.49 l 12.992,10.179 z m 9.816,0 h 8.745 v 1.091 h -6.68 v 4.592 h 5.779 v 1.262 h -5.779 v 4.516 h 7.674 v 1.168 h -9.739 z m 47.719,12.629 h 1.988 l -9.012,-12.896 -9.029,12.896 h 1.988 l 3.254,-4.593 h 7.48 z m -9.912,-5.951 2.793,-4.324 3.062,4.324 z"
       id="path2"
       style="fill:#ffffff" />
    <path
       fill="#3b68af"
       d="m 42.786,97.777 h 107.165 l -0.994,-1.168 H 43.704 Z m -39.607,16.684 1.454,-0.363 1.435,-0.44 1.454,-0.365 1.531,-0.363 1.435,-0.364 1.454,-0.363 1.435,-0.363 1.455,-0.363 1.434,-0.346 1.455,-0.363 1.53,-0.268 1.435,-0.363 1.454,-0.268 1.435,-0.287 1.531,-0.344 1.454,-0.287 2.162,-0.441 2.067,-0.459 2.162,-0.363 2.181,-0.44 2.162,-0.363 2.162,-0.364 2.163,-0.365 2.161,-0.363 2.181,-0.268 2.163,-0.363 2.162,-0.267 2.162,-0.268 2.162,-0.268 2.162,-0.269 2.181,-0.192 2.162,-0.267 2.258,-0.172 2.162,-0.191 2.162,-0.172 2.162,-0.172 2.258,-0.192 2.162,-0.171 2.162,-0.096 2.258,-0.096 2.162,-0.096 2.181,-0.078 2.162,-0.093 2.258,-0.096 h 2.162 l 2.143,-0.078 h 8.84 l 2.258,0.078 h 2.16 l 2.258,0.096 2.258,0.093 2.162,0.078 2.258,0.096 2.162,0.096 2.258,0.096 2.162,0.171 2.162,0.192 2.258,0.172 2.162,0.172 2.162,0.191 2.258,0.172 2.182,0.267 2.162,0.192 2.162,0.269 2.258,0.268 2.162,0.268 2.162,0.267 2.162,0.363 2.162,0.268 2.182,0.363 2.162,0.365 2.162,0.364 2.16,0.363 2.164,0.44 2.084,0.363 2.162,0.459 2.162,0.441 1.455,0.287 1.532,0.344 1.433,0.287 1.531,0.268 1.456,0.363 1.433,0.268 1.531,0.363 1.454,0.346 1.435,0.363 1.455,0.363 1.434,0.363 1.455,0.364 1.531,0.363 1.434,0.365 1.455,0.44 1.435,0.363 0.268,-1.168 -1.436,-0.459 -1.453,-0.363 -1.531,-0.44 -1.436,-0.363 -1.453,-0.363 -1.435,-0.459 -1.455,-0.346 -1.434,-0.363 -1.455,-0.364 -1.531,-0.363 -1.434,-0.363 -1.455,-0.268 -1.435,-0.365 -1.53,-0.363 -1.455,-0.268 -1.529,-0.363 -2.162,-0.44 -2.164,-0.363 -2.16,-0.365 -2.163,-0.363 -2.181,-0.364 -2.162,-0.363 -2.162,-0.344 -2.163,-0.365 -2.162,-0.267 -2.162,-0.288 -2.181,-0.343 -2.258,-0.287 -2.162,-0.172 -2.162,-0.268 -2.258,-0.267 -2.162,-0.192 -2.258,-0.267 -2.162,-0.174 -2.162,-0.19 -2.258,-0.174 -2.162,-0.191 -2.258,-0.076 -2.162,-0.192 -2.258,-0.095 -2.258,-0.076 -2.162,-0.096 -2.258,-0.096 -2.16,-0.076 h -2.258 l -2.258,-0.096 h -8.84 l -2.143,0.096 h -2.258 l -2.162,0.076 -2.162,0.096 -2.257,0.096 -2.182,0.076 -2.162,0.095 -2.258,0.192 -2.162,0.076 -2.258,0.191 -2.162,0.174 -2.162,0.19 -2.258,0.174 -2.161,0.267 -2.163,0.192 -2.162,0.267 -2.257,0.268 -2.163,0.172 -2.181,0.287 -2.162,0.343 -2.258,0.288 -2.162,0.267 -2.162,0.365 -2.162,0.344 -2.162,0.363 -2.162,0.364 -2.181,0.363 -2.162,0.365 -2.162,0.363 -2.162,0.44 -1.454,0.363 -1.531,0.268 -1.435,0.363 -1.454,0.365 -1.435,0.268 -1.531,0.363 -1.454,0.363 -1.435,0.364 -1.454,0.363 -1.435,0.346 -1.435,0.363 -1.454,0.459 -1.531,0.363 -1.454,0.364 -1.435,0.439 -1.436,0.363 z"
       id="path3" />
    <path
       d="m 117.119,86.431 0.979,-0.107 c 0.783,-0.142 1.029,-0.166 1.867,-0.617 1.125,-0.606 1.18,-0.77 1.693,-1.417 0.416,-0.698 0.904,-1.734 0.365,-2.918 -0.41,-0.906 -1.119,-1.468 -1.6,-1.75 -2.471,-1.448 -7.559,-0.953 -7.559,-0.953 l 0.006,12.622 h 1.723 v -4.956 l 6.141,4.956 h 2.238 z m -2.541,-0.984 v -5.681 c 0,0 1.934,-0.108 3.006,0.249 0.648,0.216 1.08,0.25 1.91,0.814 0.986,0.671 0.947,1.777 0.947,1.777 0,0 0.111,0.46 -0.615,1.329 -0.598,0.714 -1.354,0.978 -2.059,1.179 -1.035,0.295 -3.189,0.333 -3.189,0.333 z"
       id="path4"
       style="fill:#ffffff" />
  </g>
</svg>
