<?xml version="1.0" encoding="UTF-8" standalone="no"?>
<svg
   height="1268.7042"
   viewBox="-129.403 -35.974 442.47801 269.56078"
   width="1743.3875"
   version="1.1"
   id="svg25"
   xmlns="http://www.w3.org/2000/svg"
   xmlns:svg="http://www.w3.org/2000/svg">
  <defs
     id="defs25" />
  <linearGradient
     id="a"
     gradientUnits="userSpaceOnUse"
     x1="130.80299"
     x2="245.011"
     y1="29.695999"
     y2="153.73599"
     gradientTransform="translate(-12.132013,-42.014863)">
    <stop
       offset="0"
       stop-color="#0186f5"
       id="stop1" />
    <stop
       offset=".132"
       stop-color="#0186f5"
       id="stop2" />
    <stop
       offset=".315"
       stop-color="#35c2b0"
       id="stop3" />
    <stop
       offset=".667"
       stop-color="#aad825"
       id="stop4" />
    <stop
       offset="1"
       stop-color="#fed700"
       id="stop5" />
  </linearGradient>
  <linearGradient
     id="c"
     gradientUnits="userSpaceOnUse"
     x1="133.843"
     x2="259.92801"
     y1="10.269"
     y2="12.689"
     gradientTransform="translate(-12.132013,-42.014863)">
    <stop
       offset="0"
       stop-color="#0186f5"
       id="stop6" />
    <stop
       offset=".198"
       stop-color="#0186f5"
       id="stop7" />
    <stop
       offset="1"
       stop-color="#3156fd"
       id="stop8" />
  </linearGradient>
  <linearGradient
     id="d"
     gradientUnits="userSpaceOnUse"
     x1="266.83099"
     x2="278.453"
     y1="57.721001"
     y2="34.790001"
     gradientTransform="translate(-12.132013,-42.014863)">
    <stop
       offset="0"
       stop-color="#8434d5"
       id="stop9" />
    <stop
       offset=".854"
       stop-color="#3156fd"
       id="stop10" />
    <stop
       offset="1"
       stop-color="#3156fd"
       id="stop11" />
  </linearGradient>
  <linearGradient
     id="e"
     gradientUnits="userSpaceOnUse"
     x1="253.89"
     x2="157.08299"
     y1="70.503998"
     y2="75.089996"
     gradientTransform="translate(-12.132013,-42.014863)">
    <stop
       offset="0"
       stop-color="#8434d5"
       id="stop12" />
    <stop
       offset="1"
       stop-color="#fe0201"
       id="stop13" />
  </linearGradient>
  <linearGradient
     id="b"
     gradientUnits="userSpaceOnUse"
     x1="37.044998"
     x2="37.983002"
     y1="162.185"
     y2="84.339996"
     gradientTransform="translate(-12.132013,-42.014863)">
    <stop
       offset="0"
       stop-color="#ff7f00"
       id="stop14" />
    <stop
       offset="1"
       stop-color="#fe0201"
       id="stop15" />
  </linearGradient>
  <path
     d="m 112.82799,-47.793863 c -13.659003,10.884 -26.754003,25.293 -34.356003,41.0589999 -15.624,32.4040001 -6.964,62.1870001 -0.267,81.5170001 9.119,26.320003 27.586003,39.610003 49.596003,49.315003 31.381,13.839 70.828,14.77 106.646,5.52 12.626,-3.26 32.23,-10.04 36.508,-16.365 4.632,-6.848 5.36,-20.091003 -4.592,-25.909003 -9.705,-5.673 -10.647,-1.34 -39.556,5.079 -20.12,4.467 -42.089,5.243 -68.476,-6.148 -16.642,-7.183 -27.903,-18.207 -31.75,-33.275 -11.035,-43.2200001 12.805,-59.2500001 17.456,-62.1810001 z"
     fill="url(#a)"
     id="path15"
     style="fill:url(#a)" />
  <path
     d="m 145.71199,3.0931369 c -12.424,-1.646 -48.869003,-5.508 -86.998003,-12.273 -59.00400043,-10.4689999 -128.372,-24.9879999 -150.52,-26.5379999 -42.621997,-2.982 -49.728997,52.389 -15.703997,61.86 19.269997,5.364 72.296997,-0.27 85.186997,25.178 3.926,7.751 14.3119996,36.978 26.0769996,73.170003 4.612,14.19 42.1230004,11.958 35.1480004,-18.272 -3.982,-17.264003 -13.051,-63.893003 -13.051,-63.893003 0,0 107.594003,11.41 116.350003,12.167 z"
     fill="url(#b)"
     id="path16"
     style="fill:url(#b)" />
  <path
     d="m 202.36899,-25.383863 c 13.663,0.363 37.437,3.872 48.144,11.035 l 59.706,11.7659999 c 0.566,-33.1379999 -17.608,-50.9699999 -37.973,-61.2499999 -15.458,-7.802 -37.143,-14.156 -69.688,-12.767 -31.119,1.328 -63.838,8.145 -89.934,28.94 l 31.19,38.6779999 c 14.716,-9.2719999 33.21,-17.0749999 58.555,-16.4019999 z"
     fill="url(#c)"
     id="path17"
     style="fill:url(#c)" />
  <path
     d="m 249.56099,-14.958863 c 0,0 3.144,2.014 4.51,3.262 6.503,5.9399999 8.656,13.0379999 -11.072,16.3019999 l 15.605,48.2500001 c 35.503,-9.513 51.169,-30.462 51.606,-56.0390001 z"
     fill="url(#d)"
     id="path18"
     style="fill:url(#d)" />
  <path
     d="m 243.58799,4.5221369 c -17.489,2.893 -51.395,4.764 -98.144,-1.43 l -3.511,51.4000001 c 75.915,6.567 102.612,2.088 117.26,-1.837 z"
     fill="url(#e)"
     id="path19"
     style="fill:url(#e)" />
  <g
     fill="#fc0103"
     stroke-width="0.369"
     id="g25"
     transform="translate(-191.54501,-138.44286)">
    <path
       d="m 62.142,328.627 c 0,0.91 0.716,1.61 1.575,1.61 h 14.319 v 38.241 l 9.438,0.034 v -38.276 h 14.32 c 0.858,0 1.574,-0.7 1.574,-1.609 v -5.907 c 0,-0.909 -0.716,-1.609 -1.575,-1.609 H 63.717 c -0.86,0 -1.575,0.7 -1.575,1.61 z"
       id="path20" />
    <path
       d="m 95.723,351.034 c 0,10.074 8.448,17.909 18.901,17.909 10.525,0 18.973,-7.835 18.973,-17.909 0,-10.143 -8.448,-18.118 -18.973,-18.118 -10.453,0 -18.9,7.975 -18.9,18.118 z m 10.453,-0.07 c 0,-4.757 3.651,-8.674 8.448,-8.674 4.869,0 8.52,3.917 8.52,8.674 0,4.757 -3.651,8.605 -8.52,8.605 -4.797,0 -8.448,-3.848 -8.448,-8.605 z m 33.594,7.385 c 0,7.765 5.942,10.913 11.956,10.913 4.081,0 8.259,-0.565 10.924,-2.598 4.346,-3.316 0.704,-10.053 -5.226,-6.716 -1.759,0.99 -4.652,0.486 -5.182,0.27 -1.194,-0.484 -3.27,-0.892 -3.15,-4.248 v -14.669 h 8.751 c 6.711,0 6.626,-8.464 0,-8.464 h -8.75 V 321.25 l -9.323,-0.033 v 11.619 h -4.582 v 8.464 h 4.582 z m 26.415,-7.455 c 0,10.983 8.377,18.049 17.398,18.049 4.654,0 9.507,-1.96 11.153,-4.617 v 4.663 l 8.651,-0.033 V 337.35 c 0,-6.186 -8.473,-5.884 -8.473,-0.34 -1.647,-2.66 -6.606,-4.094 -11.26,-4.094 -9.02,0 -17.469,6.925 -17.469,17.978 z m 10.453,0.07 c 0,-4.757 3.652,-8.674 8.52,-8.674 4.869,0 8.52,3.917 8.52,8.674 0,4.757 -3.651,8.675 -8.52,8.675 -4.868,0 -8.52,-3.918 -8.52,-8.675 z m 44.66,17.549 v -43.217 c 0,-5.48 -9.78,-5.303 -9.78,0 v 43.214 z m 8.467,-47.931 c -0.93,0 -1.575,0.7 -1.575,1.54 v 44.761 c 0,0.91 0.644,1.61 1.575,1.61 h 31.662 l 0.034,-9.654 h -22.532 v -9.155 h 17.666 c 0.93,0 1.575,-0.77 1.575,-1.61 v -6.155 c 0,-0.91 -0.645,-1.61 -1.575,-1.61 h -17.666 v -10.073 h 20.356 c 0.93,0 1.646,-0.7 1.646,-1.609 v -6.436 c 0,-0.91 -0.716,-1.609 -1.646,-1.609 z m 63.583,46.511 c 0,0.84 0.788,1.4 1.575,1.4 h 6.173 c 0.788,0 1.575,-0.56 1.575,-1.4 v -18.887 c 0,-8.325 -4.801,-15.848 -14.037,-15.848 -5.441,0 -10.691,1.598 -12.767,4.047 0,-5.017 -8.193,-5.235 -8.193,-0.442 v 32.572 l 9.25,0.034 v -19.223 c 0,-11.857 16.424,-9.965 16.424,0 z m 75.604,-35.03 c -5.095,0 -9.263,3.021 -11.196,6.03 v -2.27 c 0,-4.223 -7.763,-4.67 -7.763,0.15 v 32.42 l 9.123,0.118 v -16.528 c 0,-4.976 3.34,-10.466 6.93,-11.05 l 3.699,-0.6 c 5.892,0 4.946,-8.27 -0.793,-8.27 z m 24.415,43.049 c -4.725,0 -9.238,-0.265 -11.66,-1.61 -5.8,-3.221 -9.229,3.854 -5.613,5.942 4.885,2.82 7.322,4.209 16.486,4.209 11.741,0 18.11,-6.495 18.11,-16.01 v -31.68 c 0,-4.177 -8.122,-4.66 -8.122,-0.529 v 2.169 c -1.718,-2.658 -6.642,-4.158 -11.368,-4.158 -9.02,0 -17.183,6.856 -17.183,17.699 0,10.843 8.09,17.558 17.613,17.558 4.582,0 8.305,-1.958 9.88,-4.337 v 2.93 c 0,4.546 -2.63,7.817 -8.143,7.817 z m -8.897,-23.968 c 0,-4.757 3.652,-8.465 8.449,-8.465 4.868,0 8.52,3.708 8.52,8.465 0,4.826 -3.652,8.464 -8.52,8.464 -4.797,0 -8.449,-3.638 -8.449,-8.464 z"
       id="path21" />
    <path
       d="m 423.077,328.664 c 3.05,0 5.58,-2.603 5.58,-5.66 0,-3.123 -2.53,-5.726 -5.58,-5.726 -3.114,0 -5.645,2.603 -5.645,5.726 0,3.057 2.53,5.66 5.645,5.66 z m 3.245,39.828 c 0.778,0 1.362,-0.65 1.362,-1.43 v -29.35 c 0,-6.195 -9.343,-6.193 -9.343,0 v 29.35 c 0,0.78 0.649,1.43 1.427,1.43 z"
       stroke-width="0.338"
       id="path22" />
    <path
       d="m 451.975,332.315 c -10.951,0 -18.836,8.4 -18.836,18.829 0,10.428 7.739,18.467 18.982,18.467 7.811,0 12.435,-2.307 15.356,-6.073 1.78,-3.085 -2.406,-6.853 -6.141,-4.696 -3.308,2.24 -5.565,1.934 -8.996,1.934 -4.161,0 -7.812,-2.825 -8.323,-7.242 h 23.326 c 1.46,0 1.825,-0.797 1.825,-1.666 v -1.955 c 0,-9.053 -5.95,-17.598 -17.193,-17.598 z m 7.884,14.7 h -15.623 c 1.022,-3.91 4.235,-6.3 7.812,-6.3 3.431,0 6.862,2.028 7.811,6.3 z"
       stroke-width="0.379"
       id="path23" />
    <path
       d="m 488.195,332.042 c -9.588,0 -15.534,5.087 -15.534,11.556 0,5.742 3.94,9.303 9.81,10.466 l 5.947,1.235 c 3.418,0.654 5.202,1.381 5.202,3.125 0,1.527 -1.635,2.98 -4.98,2.98 -3.567,0 -7.267,-0.663 -9.571,-2.625 -5.108,-2.652 -9.645,2.948 -4.55,6.768 2.973,2.035 7.655,3.925 13.75,3.925 9.885,0 16.351,-5.16 16.351,-11.992 0,-6.614 -5.054,-9.521 -11.223,-10.684 l -5.723,-1.09 c -3.047,-0.582 -4.162,-1.527 -4.162,-2.908 0,-1.453 1.858,-2.616 4.683,-2.616 3.047,0 5.619,0.312 7.849,1.765 4.474,2.584 9.062,-2.926 4.899,-6.401 -2.23,-1.963 -5.54,-3.504 -12.748,-3.504 z"
       stroke-width="0.383"
       id="path24" />
    <path
       d="m 327.092,332.315 c -10.951,0 -18.836,8.4 -18.836,18.829 0,10.428 7.739,18.467 18.982,18.467 7.811,0 12.435,-2.307 15.355,-6.073 1.781,-3.085 -2.405,-6.853 -6.14,-4.696 -3.308,2.24 -5.565,1.934 -8.996,1.934 -4.162,0 -7.812,-2.825 -8.323,-7.242 h 23.325 c 1.46,0 1.826,-0.797 1.826,-1.666 v -1.955 c 0,-9.053 -5.95,-17.598 -17.193,-17.598 z m 7.884,14.7 h -15.623 c 1.022,-3.91 4.234,-6.3 7.812,-6.3 3.43,0 6.862,2.028 7.811,6.3 z"
       id="path25" />
  </g>
</svg>
